<svg width="32" height="32" viewBox="0 0 32 32" fill="none" xmlns="http://www.w3.org/2000/svg">
<path d="M32 14.8947V17.1285C31.9396 17.6316 31.8792 18.1346 31.7987 18.6377C31.1545 22.26 29.5038 25.3189 26.8062 27.7941C24.5314 29.887 21.8741 31.2152 18.8142 31.7585C18.2505 31.8591 17.6869 31.9195 17.1232 32H14.8886C14.3451 31.9195 13.7814 31.839 13.2379 31.7585C10.1981 31.2353 7.56096 29.9272 5.28616 27.8545C2.62887 25.4597 0.917732 22.5015 0.293671 19C-0.551831 14.4117 0.434588 10.226 3.1724 6.44268C3.35358 6.18107 3.57502 5.93958 3.77633 5.67797C4.17895 5.195 4.80302 5.1145 5.26603 5.49686C5.70891 5.85909 5.7693 6.50305 5.36668 6.9659C4.03804 8.55569 3.09188 10.3668 2.54834 12.3591C1.07878 17.7322 3.03149 23.548 7.44018 26.969C9.37275 28.4783 11.5469 29.4644 13.9828 29.7663C18.8746 30.4102 23.0216 28.9009 26.3633 25.2987C28.2758 23.2461 29.4232 20.791 29.8057 18.0139C30.3895 13.8483 29.3024 10.1052 26.5848 6.90553C24.5113 4.51079 21.8942 2.96125 18.7941 2.35753C14.5464 1.53245 10.6813 2.4984 7.259 5.15475C6.99729 5.35599 6.69533 5.55723 6.37323 5.6176C5.91022 5.71822 5.5076 5.41636 5.32642 4.99376C5.16537 4.57116 5.26603 4.10831 5.62839 3.80645C6.73559 2.88075 7.92332 2.09592 9.25197 1.49221C11.6677 0.385394 14.2042 -0.117703 16.8615 0.0231639C21.0085 0.26465 24.5717 1.89468 27.4705 4.85289C29.7051 7.12689 31.1142 9.84361 31.7182 12.9628C31.8188 13.486 31.8591 14.0294 31.9396 14.5727C31.9597 14.6935 31.9799 14.7941 32 14.8947Z" fill="#7A95E8"/>
<path d="M27.7926 14.9552C27.3295 17.3499 25.9002 18.8391 23.565 19.4428C22.6189 19.6843 21.6526 19.805 20.6863 19.9459C20.0622 20.0264 19.559 19.5837 19.5187 19.0001C19.4784 18.4165 19.8811 17.9738 20.5051 17.8933C21.5519 17.7725 22.5786 17.6316 23.5852 17.2694C25.0346 16.7462 25.6587 15.6394 25.8197 14.2106C25.86 13.7477 25.6385 13.4459 25.256 13.2044C24.632 12.8422 23.9274 12.7013 23.2228 12.5806C22.7598 12.5001 22.2767 12.4397 21.7935 12.3994C21.4714 12.3592 21.2097 12.2385 21.0285 11.9768C19.9012 10.5078 18.3712 9.68272 16.64 9.19975C15.9958 9.01863 15.5126 8.6564 15.3315 8.03256C15.1301 7.40872 15.0295 6.76476 14.8886 6.12079C14.8684 6.0403 14.8684 5.9598 14.8282 5.77869C14.2846 6.32203 13.7814 6.78488 13.3184 7.26785C12.3521 8.29417 11.6072 9.48148 10.8422 10.6688C9.99674 11.997 9.15124 13.3453 8.20508 14.6131C7.15827 16.0217 5.80949 17.1286 4.36006 18.0945C3.83666 18.4366 3.23273 18.3159 2.8905 17.8329C2.5684 17.37 2.68919 16.7261 3.19246 16.384C4.3198 15.6394 5.38674 14.7942 6.21211 13.7477C6.99722 12.7617 7.72194 11.7152 8.40639 10.6487C9.37268 9.1595 10.2584 7.63008 11.4059 6.28178C12.3319 5.19509 13.3989 4.22915 14.5463 3.38395C15.2912 2.8406 16.2172 3.06196 16.4991 3.92729C16.7004 4.53101 16.7608 5.19509 16.9017 5.83906C16.9419 6.0403 16.9822 6.24154 16.9822 6.4629C17.0023 6.966 17.2439 7.20748 17.7472 7.36847C19.4986 7.91182 21.0084 8.83752 22.2163 10.2059C22.2968 10.2864 22.4176 10.3468 22.5384 10.3669C23.4845 10.5883 24.4508 10.7292 25.397 11.0109C26.4236 11.3329 27.249 11.9567 27.6516 13.0233C27.9335 13.6672 27.9133 14.3112 27.7926 14.9552Z" fill="#7A95E8"/>
<path d="M22.1963 23.1454C22.1963 24.4937 21.9346 25.7413 21.1092 26.8482C20.5858 27.5525 19.8812 27.9952 19.0357 28.2166C18.0694 28.4581 17.1434 28.7599 16.2777 29.263C15.7543 29.5649 15.1705 29.3838 14.8686 28.8807C14.5867 28.3776 14.7478 27.794 15.2511 27.472C16.157 26.9085 17.1233 26.5262 18.1701 26.3048C19.2571 26.0834 19.7604 25.3791 20.002 24.393C20.1228 23.8899 20.0624 23.568 19.5994 23.2259C19.0156 22.8033 18.5123 22.2197 18.0694 21.6361C17.5057 20.9116 16.8414 20.3481 15.9758 20.0262C15.4121 19.8249 15.1504 19.4426 15.1303 18.8389C15.1102 18.4565 15.09 18.0741 15.0498 17.6918C15.0296 17.6717 14.9894 17.6717 14.9692 17.6515C14.5867 18.0138 14.2043 18.376 13.8218 18.7584C12.4529 20.1469 11.1242 21.5556 9.73517 22.924C9.01046 23.6283 8.22535 24.2522 7.44024 24.8961C6.9571 25.2785 6.33303 25.198 5.97068 24.7553C5.60832 24.2924 5.68884 23.6686 6.17199 23.2862C8.18509 21.7367 9.89622 19.9054 11.6476 18.0741C12.3321 17.3497 13.0769 16.6655 13.8218 16.0014C14.2244 15.6392 14.7277 15.3977 15.2913 15.2971C15.9154 15.1964 16.4388 15.3775 16.7005 15.9611C16.9219 16.4642 17.0629 17.0277 17.1434 17.571C17.2038 18.0339 17.3044 18.3559 17.7876 18.5974C18.6129 19.02 19.2571 19.6639 19.7805 20.4488C20.2436 21.133 20.8274 21.6562 21.5521 22.0386C21.9748 22.2599 22.1963 22.6221 22.1963 23.1454Z" fill="#7A95E8"/>
<path d="M17.2429 22.3406C17.2429 23.1053 16.6392 23.7291 15.8745 23.7493C15.1299 23.7694 14.4457 23.1053 14.4457 22.3607C14.4457 21.596 15.0695 20.9923 15.8342 20.9722C16.6191 20.9722 17.2429 21.5759 17.2429 22.3406Z" fill="#7A95E8"/>
<path d="M19.699 12.3995C19.699 13.1642 19.0751 13.7881 18.3104 13.7881C17.5457 13.7881 16.9219 13.1441 16.9219 12.3794C16.9219 11.5946 17.5256 10.9908 18.3104 10.9908C19.1154 11.0311 19.699 11.6147 19.699 12.3995Z" fill="#7A95E8"/>
</svg>
